<?xml version="1.0" standalone="no"?>
<!DOCTYPE svg PUBLIC "-//W3C//DTD SVG 20010904//EN"
 "http://www.w3.org/TR/2001/REC-SVG-20010904/DTD/svg10.dtd">
<svg version="1.0" xmlns="http://www.w3.org/2000/svg"
 width="376.000000pt" height="167.000000pt" viewBox="0 0 376.000000 167.000000"
 preserveAspectRatio="xMidYMid meet">

<g transform="translate(0.000000,167.000000) scale(0.100000,-0.100000)"
fill="#000000" stroke="none">
<path d="M2017 1543 c-4 -3 -7 -49 -7 -101 l0 -94 -31 26 c-23 20 -42 26 -77
26 -91 0 -142 -57 -142 -160 0 -91 43 -152 115 -166 41 -7 67 0 105 33 l30 25
0 -26 c0 -29 11 -39 34 -30 14 5 16 34 16 228 0 159 -3 225 -12 234 -14 14
-22 15 -31 5z m-63 -194 c49 -23 70 -107 43 -172 -19 -45 -41 -60 -88 -60 -58
0 -90 35 -97 102 -10 108 56 169 142 130z"/>
<path d="M97 1533 c-11 -10 -8 -451 2 -457 5 -4 16 -3 25 0 13 5 16 23 16 94
l0 88 93 4 c142 7 187 42 187 146 0 55 -22 92 -70 117 -30 15 -239 22 -253 8z
m249 -67 c30 -34 32 -94 5 -127 -17 -22 -29 -24 -115 -27 l-96 -4 0 97 0 97
91 -4 c85 -4 94 -6 115 -32z"/>
<path d="M533 1380 c-86 -52 -96 -201 -18 -269 89 -77 220 -35 244 79 26 122
-34 210 -144 210 -32 0 -62 -7 -82 -20z m148 -49 c25 -26 29 -37 29 -86 0 -74
-20 -111 -66 -124 -43 -12 -96 6 -113 37 -6 12 -11 48 -11 82 0 55 3 65 29 91
22 21 39 29 66 29 27 0 44 -8 66 -29z"/>
<path d="M857 1394 c-10 -11 -8 -312 2 -318 5 -4 16 -3 25 0 13 5 16 24 16
111 0 134 19 172 86 173 55 0 64 -22 64 -152 0 -94 3 -118 16 -129 31 -25 44
14 44 128 0 97 2 106 25 128 27 28 71 33 101 11 17 -13 19 -29 22 -138 2 -68
7 -127 11 -131 4 -4 15 -5 24 -1 15 5 17 23 17 120 0 163 -21 204 -105 204
-39 0 -91 -22 -98 -42 -3 -9 -14 -4 -34 15 -44 41 -130 35 -157 -12 -8 -14
-11 -12 -16 9 -6 24 -29 37 -43 24z"/>
<path d="M1463 1380 c-52 -31 -68 -65 -68 -141 0 -73 14 -103 69 -143 38 -29
124 -29 163 0 43 33 65 77 65 137 1 104 -55 167 -148 167 -31 0 -61 -7 -81
-20z m149 -50 c29 -29 30 -34 26 -96 -3 -53 -9 -69 -30 -90 -52 -53 -138 -27
-158 46 -34 126 79 223 162 140z"/>
<path d="M2213 1380 c-45 -27 -63 -60 -70 -123 -4 -41 -1 -64 15 -99 48 -110
212 -115 267 -8 20 38 19 133 -1 176 -33 70 -140 98 -211 54z m128 -30 c33
-18 52 -68 47 -127 -7 -86 -64 -127 -135 -98 -55 23 -76 97 -49 169 23 59 84
84 137 56z"/>
<path d="M2530 1241 c0 -161 5 -186 35 -161 11 9 15 37 15 114 0 119 9 139 73
158 43 12 60 26 51 40 -14 22 -113 -8 -115 -35 0 -6 -5 0 -11 16 -6 16 -17 27
-29 27 -18 0 -19 -9 -19 -159z"/>
<path d="M2830 1393 c-52 -19 -90 -83 -90 -153 0 -97 46 -155 132 -166 92 -12
168 60 168 159 0 61 -19 106 -59 140 -27 22 -42 27 -84 26 -29 0 -59 -3 -67
-6z m125 -57 c44 -44 45 -142 1 -192 -17 -21 -31 -27 -64 -27 -23 0 -49 6 -57
13 -58 48 -59 167 -2 212 33 26 93 23 122 -6z"/>
<path d="M3006 708 c-45 -45 -55 -94 -29 -145 41 -79 135 -93 200 -28 28 28
33 40 33 82 0 39 -6 56 -28 82 -25 30 -35 35 -85 39 -54 4 -58 3 -91 -30z"/>
<path d="M3334 706 c-30 -30 -34 -41 -34 -84 0 -140 176 -181 232 -54 17 38
19 51 9 83 -17 57 -61 89 -123 89 -44 0 -54 -4 -84 -34z"/>
<path d="M34 635 c-11 -27 7 -35 86 -35 l80 0 2 -207 c3 -207 3 -208 26 -211
l22 -3 0 210 0 211 84 0 c86 0 108 9 86 35 -18 22 -378 22 -386 0z"/>
<path d="M1765 638 c-3 -7 -4 -112 -3 -233 3 -212 4 -220 23 -220 19 0 20 8
25 112 5 105 7 114 31 139 32 32 88 37 118 10 18 -16 21 -33 23 -140 3 -117 4
-121 26 -124 22 -3 22 -2 22 123 0 91 -4 134 -15 154 -28 55 -113 65 -175 21
l-29 -21 -3 93 c-3 79 -6 93 -21 96 -9 2 -19 -3 -22 -10z"/>
<path d="M1547 593 c-4 -3 -7 -26 -7 -50 0 -41 -1 -43 -30 -43 -23 0 -30 -4
-30 -20 0 -16 7 -20 30 -20 l30 0 0 -95 c0 -149 26 -189 118 -183 39 3 47 6
47 23 0 16 -6 19 -31 17 -19 -2 -40 4 -55 17 -22 18 -24 28 -27 120 l-4 100
54 3 c39 2 53 7 53 18 0 11 -14 16 -52 18 l-53 3 0 50 c0 41 -3 49 -18 49 -10
0 -22 -3 -25 -7z"/>
<path d="M490 492 c-54 -27 -80 -74 -80 -144 0 -110 51 -168 146 -168 89 0
141 50 151 143 8 77 -22 138 -81 166 -52 26 -90 26 -136 3z m127 -48 c27 -17
47 -85 38 -132 -9 -48 -55 -92 -95 -92 -69 0 -105 50 -98 136 8 98 78 138 155
88z"/>
<path d="M854 496 c-52 -23 -79 -71 -79 -141 0 -72 18 -111 64 -142 45 -31 98
-30 145 2 l36 24 0 -42 c0 -84 -57 -114 -157 -83 -52 17 -73 15 -73 -5 0 -18
84 -49 133 -49 65 0 112 21 133 62 25 46 33 343 11 373 -13 16 -17 17 -31 6
-9 -7 -16 -20 -16 -27 0 -9 -11 -6 -36 11 -41 28 -83 31 -130 11z m109 -39
c45 -19 61 -54 55 -122 -6 -73 -29 -98 -91 -99 -55 -1 -83 21 -98 77 -16 59 6
117 51 139 42 21 42 21 83 5z"/>
<path d="M1241 488 c-57 -29 -81 -74 -81 -148 0 -99 60 -160 157 -160 56 0
123 25 123 46 0 22 -17 24 -54 9 -69 -29 -147 -10 -166 41 -20 52 -19 53 108
56 l117 3 -1 35 c-3 110 -106 169 -203 118z m112 -29 c25 -11 47 -47 47 -74 0
-12 -19 -15 -95 -15 -101 0 -106 3 -81 49 25 45 81 62 129 40z"/>
<path d="M2200 491 c-67 -35 -96 -109 -78 -195 14 -66 63 -108 132 -114 58 -5
117 10 137 34 22 26 -3 36 -46 18 -81 -34 -175 5 -175 72 l0 24 114 0 c127 0
130 2 116 64 -22 99 -114 144 -200 97z m131 -50 c16 -16 29 -39 29 -50 0 -20
-5 -21 -95 -21 -84 0 -95 2 -95 18 0 24 28 62 54 72 42 17 77 11 107 -19z"/>
<path d="M2490 491 c-12 -24 -13 -280 -1 -299 5 -8 17 -12 27 -10 17 3 20 16
24 121 5 128 11 141 70 153 45 10 50 13 50 34 0 28 -38 26 -82 -4 l-36 -24
-11 24 c-13 29 -27 31 -41 5z"/>
<path d="M2950 457 c-55 -36 -73 -79 -78 -178 l-4 -87 33 -10 c82 -26 234 -41
271 -27 10 4 12 30 10 110 -3 98 -1 109 22 151 l25 45 -25 9 c-14 6 -69 10
-123 10 -85 0 -102 -3 -131 -23z"/>
<path d="M3292 463 c-18 -9 -43 -30 -55 -47 -19 -27 -22 -44 -22 -130 l0 -100
50 -13 c122 -31 295 -25 354 14 23 15 24 19 18 99 -7 97 -23 134 -74 169 -34
23 -47 25 -138 25 -72 0 -109 -5 -133 -17z"/>
</g>
</svg>
